<?xml version="1.0" standalone="no"?>
<!DOCTYPE svg PUBLIC "-//W3C//DTD SVG 20010904//EN"
 "http://www.w3.org/TR/2001/REC-SVG-20010904/DTD/svg10.dtd">
<svg version="1.0" xmlns="http://www.w3.org/2000/svg"
 width="50.000000pt" height="50.000000pt" viewBox="0 0 50.000000 50.000000"
 preserveAspectRatio="xMidYMid meet">

<g transform="translate(0.000000,50.000000) scale(0.100000,-0.100000)"
fill="#fff" stroke="none">
<path d="M146 464 c-13 -12 -16 -41 -16 -150 0 -180 19 -177 22 4 3 134 4 137
26 140 12 2 22 8 22 13 0 15 -37 10 -54 -7z"/>
<path d="M366 464 c-9 -8 -16 -22 -16 -30 0 -11 -19 -14 -95 -14 -57 0 -95 -4
-95 -10 0 -6 38 -10 95 -10 88 0 95 -1 95 -20 0 -19 -7 -20 -95 -20 -57 0 -95
-4 -95 -10 0 -6 38 -10 95 -10 88 0 95 -1 95 -20 0 -19 -7 -20 -95 -20 -57 0
-95 -4 -95 -10 0 -6 38 -10 95 -10 88 0 95 -1 95 -20 0 -19 -7 -20 -95 -20
-57 0 -95 -4 -95 -10 0 -6 38 -10 95 -10 88 0 95 -1 95 -20 0 -11 4 -20 10
-20 5 0 11 57 12 138 3 134 4 137 26 140 12 2 22 8 22 13 0 15 -37 10 -54 -7z"/>
<path d="M53 166 c-40 -12 -44 -31 -6 -22 16 4 34 6 41 6 6 -1 30 -2 52 -2 22
0 47 0 55 0 8 0 33 0 55 0 22 0 47 0 55 0 8 0 33 0 55 0 22 0 46 1 53 2 6 0
24 -2 40 -6 38 -9 34 9 -6 21 -21 7 -42 7 -60 1 -18 -7 -37 -7 -55 0 -18 7
-36 7 -55 0 -18 -7 -37 -7 -55 0 -18 7 -36 7 -55 0 -18 -7 -37 -7 -55 0 -17 6
-39 6 -59 0z"/>
<path d="M53 106 c-40 -12 -44 -31 -6 -22 16 4 34 6 41 6 6 -1 30 -2 52 -2 22
0 47 0 55 0 8 0 33 0 55 0 22 0 47 0 55 0 8 0 33 0 55 0 22 0 46 1 53 2 6 0
24 -2 40 -6 38 -9 34 9 -6 21 -21 7 -42 7 -60 1 -18 -7 -37 -7 -55 0 -18 7
-36 7 -55 0 -18 -7 -37 -7 -55 0 -18 7 -36 7 -55 0 -18 -7 -37 -7 -55 0 -17 6
-39 6 -59 0z"/>
<path d="M53 46 c-40 -12 -44 -31 -6 -22 16 4 34 6 41 6 6 -1 30 -2 52 -2 22
0 47 0 55 0 8 0 33 0 55 0 22 0 47 0 55 0 8 0 33 0 55 0 22 0 46 1 53 2 6 0
24 -2 40 -6 38 -9 34 9 -6 21 -21 7 -42 7 -60 1 -18 -7 -37 -7 -55 0 -18 7
-36 7 -55 0 -18 -7 -37 -7 -55 0 -18 7 -36 7 -55 0 -18 -7 -37 -7 -55 0 -17 6
-39 6 -59 0z"/>
</g>
</svg>
