<?xml version="1.0" standalone="no"?>
<!DOCTYPE svg PUBLIC "-//W3C//DTD SVG 20010904//EN"
 "http://www.w3.org/TR/2001/REC-SVG-20010904/DTD/svg10.dtd">
<svg version="1.0" xmlns="http://www.w3.org/2000/svg"
 width="50.000000pt" height="50.000000pt" viewBox="0 0 50.000000 50.000000"
 preserveAspectRatio="xMidYMid meet">

<g transform="translate(0.000000,50.000000) scale(0.100000,-0.100000)"
fill="#fff" stroke="none">
<path d="M163 459 c-44 -21 -72 -58 -93 -119 -10 -31 -8 -42 13 -93 16 -40 32
-63 52 -73 15 -8 29 -13 31 -12 1 2 -1 19 -5 38 -5 26 -13 36 -29 38 -28 4
-48 38 -27 46 19 7 19 45 1 52 -26 10 1 50 32 49 23 0 27 4 27 27 -1 35 40 58
48 27 3 -11 14 -19 27 -19 13 0 24 8 27 19 8 31 49 8 48 -27 0 -29 27 -41 54
-23 36 23 -60 91 -130 91 -19 0 -53 -9 -76 -21z"/>
<path d="M429 385 c-14 -8 -53 -49 -87 -93 -70 -91 -121 -139 -158 -148 -38
-10 -89 18 -120 66 -15 22 -29 40 -33 40 -3 0 -6 -45 -6 -100 l0 -100 128 0
c78 0 127 -4 127 -10 0 -5 13 -10 29 -10 23 0 31 6 38 27 l10 28 6 -28 c6 -22
13 -27 37 -27 17 0 30 5 30 10 0 6 10 10 23 10 22 0 22 0 22 175 0 110 -4 175
-10 175 -5 -1 -22 -7 -36 -15z m21 -165 c0 -93 -4 -150 -10 -150 -5 0 -10 11
-10 24 0 17 -11 31 -37 47 l-36 23 -36 -21 c-24 -14 -37 -29 -39 -47 -6 -45
-22 -28 -22 22 0 39 5 53 25 72 l25 23 0 -27 c0 -16 4 -25 10 -21 6 3 10 23
10 43 0 24 8 47 25 67 l24 30 1 -67 c0 -37 5 -70 10 -73 6 -4 10 25 10 81 0
67 4 92 17 106 9 10 20 18 25 18 4 0 8 -67 8 -150z m-350 -112 c0 -34 -3 -38
-25 -38 -24 0 -25 3 -25 62 l0 61 25 -23 c18 -17 25 -34 25 -62z m140 -3 c0
-31 -3 -35 -25 -35 -20 0 -25 5 -25 25 0 21 21 44 43 45 4 0 7 -16 7 -35z
m-79 15 c5 0 9 -11 9 -25 0 -20 -5 -25 -25 -25 -21 0 -25 5 -25 31 0 24 3 30
16 25 9 -3 20 -6 25 -6z"/>
<path d="M210 335 c-15 -18 -10 -45 13 -59 34 -22 73 27 47 59 -16 19 -44 19
-60 0z"/>
</g>
</svg>
