<?xml version="1.0" standalone="no"?>
<!DOCTYPE svg PUBLIC "-//W3C//DTD SVG 20010904//EN"
 "http://www.w3.org/TR/2001/REC-SVG-20010904/DTD/svg10.dtd">
<svg version="1.0" xmlns="http://www.w3.org/2000/svg"
 width="50.000000pt" height="50.000000pt" viewBox="0 0 50.000000 50.000000"
 preserveAspectRatio="xMidYMid meet">

<g transform="translate(0.000000,50.000000) scale(0.100000,-0.100000)"
fill="#fff" stroke="none">
<path d="M184 405 c-15 -14 -38 -25 -52 -25 -24 0 -98 -55 -84 -63 4 -3 84 6
177 19 94 13 178 23 188 24 28 0 19 14 -23 33 -26 12 -50 16 -73 12 -24 -5
-37 -2 -46 9 -20 23 -56 19 -87 -9z m61 -5 c-3 -5 -15 -10 -26 -10 -11 0 -17
5 -14 10 3 6 15 10 26 10 11 0 17 -4 14 -10z"/>
<path d="M48 240 c5 -54 2 -59 -23 -34 -9 9 -18 14 -21 12 -9 -10 8 -37 27
-43 16 -5 19 -16 19 -75 0 -101 -2 -100 200 -100 202 0 200 -1 200 100 0 59 3
70 19 75 19 6 36 33 27 43 -3 2 -12 -3 -21 -12 -25 -25 -28 -20 -23 34 l5 50
-207 0 -207 0 5 -50z"/>
</g>
</svg>
