<?xml version="1.0" standalone="no"?>
<!DOCTYPE svg PUBLIC "-//W3C//DTD SVG 20010904//EN"
 "http://www.w3.org/TR/2001/REC-SVG-20010904/DTD/svg10.dtd">
<svg version="1.0" xmlns="http://www.w3.org/2000/svg"
 width="30.000000pt" height="30.000000pt" viewBox="0 0 30.000000 30.000000"
 preserveAspectRatio="xMidYMid meet">

<g transform="translate(0.000000,30.000000) scale(0.100000,-0.100000)"
fill="#fff" stroke="none">
<path d="M144 269 c-10 -17 13 -36 27 -22 12 12 4 33 -11 33 -5 0 -12 -5 -16
-11z"/>
<path d="M94 229 c-10 -17 13 -36 27 -22 12 12 4 33 -11 33 -5 0 -12 -5 -16
-11z"/>
<path d="M120 179 c-28 -28 -49 -53 -46 -56 7 -7 46 16 46 28 0 6 4 7 10 4 15
-9 -17 -51 -57 -76 -25 -16 -32 -24 -23 -33 12 -12 184 -16 196 -4 4 4 -12 32
-35 61 -22 30 -41 59 -41 65 0 7 15 12 35 12 24 0 35 5 35 15 0 8 -7 15 -15
15 -8 0 -15 5 -15 10 0 25 -44 5 -90 -41z"/>
<path d="M201 143 c7 -10 15 -20 16 -22 2 -2 3 5 3 17 0 14 -6 22 -16 22 -14
0 -15 -3 -3 -17z"/>
</g>
</svg>
