<?xml version="1.0" standalone="no"?>
<!DOCTYPE svg PUBLIC "-//W3C//DTD SVG 20010904//EN"
 "http://www.w3.org/TR/2001/REC-SVG-20010904/DTD/svg10.dtd">
<svg version="1.0" xmlns="http://www.w3.org/2000/svg"
 width="30.000000pt" height="30.000000pt" viewBox="0 0 30.000000 30.000000"
 preserveAspectRatio="xMidYMid meet">

<g transform="translate(0.000000,30.000000) scale(0.100000,-0.100000)"
fill="#fff" stroke="none">
<path d="M173 224 c-20 -41 -9 -69 27 -69 36 0 47 28 27 69 -9 20 -21 36 -27
36 -6 0 -18 -16 -27 -36z"/>
<path d="M43 140 c-19 -8 -23 -17 -23 -49 0 -39 1 -40 24 -29 20 9 35 7 79
-11 l55 -22 51 28 c28 15 51 34 51 41 0 16 -10 15 -54 -3 -29 -12 -36 -13 -36
-2 0 7 -24 23 -53 35 -58 24 -62 25 -94 12z"/>
</g>
</svg>
