<?xml version="1.0" standalone="no"?>
<!DOCTYPE svg PUBLIC "-//W3C//DTD SVG 20010904//EN"
 "http://www.w3.org/TR/2001/REC-SVG-20010904/DTD/svg10.dtd">
<svg version="1.0" xmlns="http://www.w3.org/2000/svg"
 width="30.000000pt" height="30.000000pt" viewBox="0 0 30.000000 30.000000"
 preserveAspectRatio="xMidYMid meet">

<g transform="translate(0.000000,30.000000) scale(0.100000,-0.100000)"
fill="#fff" stroke="none">
<path d="M70 150 c0 -83 1 -90 20 -90 16 0 20 7 20 35 0 34 1 35 40 35 39 0
40 -1 40 -35 0 -28 4 -35 20 -35 19 0 20 7 20 90 0 83 -1 90 -20 90 -16 0 -20
-7 -20 -35 0 -34 -1 -35 -40 -35 -39 0 -40 1 -40 35 0 28 -4 35 -20 35 -19 0
-20 -7 -20 -90z"/>
<path d="M20 190 c0 -11 -4 -20 -10 -20 -5 0 -10 -9 -10 -20 0 -11 5 -20 10
-20 6 0 10 -9 10 -20 0 -11 7 -20 15 -20 12 0 15 13 15 60 0 47 -3 60 -15 60
-8 0 -15 -9 -15 -20z"/>
<path d="M250 150 c0 -47 3 -60 15 -60 8 0 15 9 15 20 0 11 5 20 10 20 6 0 10
9 10 20 0 11 -4 20 -10 20 -5 0 -10 9 -10 20 0 11 -7 20 -15 20 -12 0 -15 -13
-15 -60z"/>
</g>
</svg>
