<?xml version="1.0" standalone="no"?>
<!DOCTYPE svg PUBLIC "-//W3C//DTD SVG 20010904//EN"
 "http://www.w3.org/TR/2001/REC-SVG-20010904/DTD/svg10.dtd">
<svg version="1.0" xmlns="http://www.w3.org/2000/svg"
 width="64.000000pt" height="64.000000pt" viewBox="0 0 64.000000 64.000000"
 preserveAspectRatio="xMidYMid meet">

<g transform="translate(0.000000,64.000000) scale(0.100000,-0.100000)"
fill="#fff" stroke="none">
<path d="M258 596 c-57 -21 -85 -42 -116 -88 -22 -35 -27 -52 -27 -107 0 -84
25 -135 86 -176 25 -16 60 -49 78 -72 19 -24 37 -43 41 -43 4 0 22 19 41 42
18 24 53 57 78 73 61 41 86 92 86 177 0 58 -4 72 -30 110 -55 77 -158 114
-237 84z m132 -94 c14 -10 33 -35 44 -56 16 -32 17 -44 7 -76 -23 -76 -103
-116 -168 -83 -103 51 -104 173 -2 226 39 20 81 16 119 -11z"/>
<path d="M279 475 c-14 -8 -32 -28 -39 -45 -17 -42 5 -91 49 -110 67 -28 139
43 111 110 -12 30 -55 60 -82 60 -7 -1 -25 -7 -39 -15z"/>
<path d="M165 156 c-48 -21 -60 -41 -42 -69 47 -72 359 -67 398 6 10 18 8 24
-15 43 -44 39 -147 46 -116 9 7 -8 22 -15 34 -15 27 0 63 -24 49 -33 -29 -18
-156 -28 -225 -17 -100 15 -112 33 -34 49 42 9 49 41 9 41 -15 -1 -42 -7 -58
-14z"/>
</g>
</svg>
